<?xml version="1.0" encoding="UTF-8" standalone="no"?>
<svg
   xmlns:dc="http://purl.org/dc/elements/1.1/"
   xmlns:cc="http://creativecommons.org/ns#"
   xmlns:rdf="http://www.w3.org/1999/02/22-rdf-syntax-ns#"
   xmlns:svg="http://www.w3.org/2000/svg"
   xmlns="http://www.w3.org/2000/svg"
   xmlns:sodipodi="http://sodipodi.sourceforge.net/DTD/sodipodi-0.dtd"
   xmlns:inkscape="http://www.inkscape.org/namespaces/inkscape"
   viewBox="0 0 22.000003 19.799999"
   width="22"
   height="19.799999"
   version="1.1"
   id="svg30"
   sodipodi:docname="logo.svg"
   inkscape:export-filename="/home/dcandrade/Documents/Teste/front/images/logo.svg.png"
   inkscape:export-xdpi="1309.0909"
   inkscape:export-ydpi="1309.0909"
   inkscape:version="0.92.4 5da689c313, 2019-01-14">
  <metadata
     id="metadata36">
    <rdf:RDF>
      <cc:Work
         rdf:about="">
        <dc:format>image/svg+xml</dc:format>
        <dc:type
           rdf:resource="http://purl.org/dc/dcmitype/StillImage" />
        <dc:title></dc:title>
      </cc:Work>
    </rdf:RDF>
  </metadata>
  <defs
     id="defs34" />
  <sodipodi:namedview
     pagecolor="#ffffff"
     bordercolor="#666666"
     borderopacity="1"
     objecttolerance="10"
     gridtolerance="10"
     guidetolerance="10"
     inkscape:pageopacity="0"
     inkscape:pageshadow="2"
     inkscape:window-width="1366"
     inkscape:window-height="708"
     id="namedview32"
     showgrid="false"
     fit-margin-top="0"
     fit-margin-left="0"
     fit-margin-right="0"
     fit-margin-bottom="0"
     inkscape:zoom="10.466667"
     inkscape:cx="11.665972"
     inkscape:cy="1.2185398"
     inkscape:window-x="0"
     inkscape:window-y="32"
     inkscape:window-maximized="1"
     inkscape:current-layer="svg30" />
  <g
     id="g28"
     transform="translate(-0.25555556,-0.09991798)"
     style="fill:none">
    <g
       id="g26">
      <path
         d="m 26.1,19 v -2.1 c 1,0.7 2.1,1.1 3.3,1.1 1.2,0 2.1,-0.3 2.6,-0.9 0.6,-0.6 0.8,-1.6 0.8,-3 V 1.7 h 2 v 12.6 c 0,1.1 -0.2,2 -0.5,2.8 -0.3,0.8 -0.7,1.4 -1.2,1.8 -0.6,0.3 -1.1,0.6 -1.7,0.8 -0.5,0.1 -1.1,0.2 -1.8,0.2 -1.3,0 -2.4,-0.3 -3.5,-0.9"
         class="a"
         id="path2"
         inkscape:connector-curvature="0" />
      <path
         d="M 38.7,14 V 6.2 h 1.9 v 7.9 c 0,1.4 0.3,2.4 0.9,3 0.6,0.6 1.6,1 2.8,1 1.3,0 2.2,-0.4 2.8,-1 0.6,-0.6 0.9,-1.6 0.9,-3 V 6.2 h 2 V 14 c 0,1.9 -0.5,3.3 -1.5,4.4 -1,1 -2.4,1.5 -4.2,1.5 -1.8,0 -3.2,-0.5 -4.1,-1.5 -1,-1.1 -1.5,-2.5 -1.5,-4.4"
         class="a"
         id="path4"
         inkscape:connector-curvature="0" />
      <path
         d="m 52.7,9.9 c 0,-1.1 0.4,-2 1.2,-2.8 0.8,-0.7 2,-1.1 3.6,-1.1 1.1,0 2.3,0.2 3.4,0.8 v 1.9 c -1,-0.6 -2.1,-0.9 -3.2,-0.9 -2,0 -3.1,0.7 -3.1,2.1 0,0.4 0.3,0.8 0.8,1.1 0.5,0.3 1.1,0.5 1.8,0.7 0.7,0.2 1.4,0.4 2.1,0.7 0.7,0.3 1.3,0.7 1.8,1.3 0.5,0.7 0.8,1.5 0.8,2.4 0,1.2 -0.5,2.1 -1.3,2.8 -0.9,0.7 -2.1,1 -3.7,1 -1.5,0 -2.8,-0.3 -4,-1 v -2.1 c 1.3,0.8 2.6,1.2 4,1.2 2,0 3,-0.6 3,-1.9 0,-0.6 -0.2,-1.1 -0.7,-1.5 C 58.7,14.2 58.1,13.9 57.4,13.7 56.7,13.5 56,13.3 55.2,13.1 54.5,12.9 53.9,12.5 53.4,12 52.9,11.4 52.7,10.7 52.7,9.9"
         class="a"
         id="path6"
         inkscape:connector-curvature="0" />
      <path
         d="m 66.2,15.7 c 0,1.6 1.2,2.4 3.5,2.4 0.5,0 1,0 1.4,-0.2 0.4,-0.1 0.8,-0.3 1.2,-0.6 0.5,-0.4 0.8,-0.9 1.1,-1.7 0.2,-0.7 0.3,-1.7 0.3,-2.8 0,-1.8 -0.3,-3 -1,-3.8 C 72,8.2 71,7.8 69.5,7.8 68.4,7.8 67.3,8 66.2,8.5 Z m -2,-0.1 V 1.1 h 2 v 5.4 c 1,-0.3 2.1,-0.5 3.3,-0.5 0.6,0 1.2,0 1.7,0.1 0.6,0.1 1.1,0.3 1.7,0.7 0.5,0.3 1,0.7 1.4,1.1 0.4,0.5 0.7,1.2 1,2 0.2,0.8 0.4,1.8 0.4,2.9 0,1.2 -0.2,2.2 -0.4,3.1 -0.3,0.9 -0.7,1.6 -1.1,2.1 -0.4,0.5 -0.9,0.9 -1.4,1.2 -0.6,0.3 -1.1,0.5 -1.6,0.6 -0.5,0.1 -1,0.1 -1.5,0.1 -0.9,0 -1.8,-0.1 -2.5,-0.4 C 66.5,19.3 65.9,19 65.6,18.7 65.2,18.4 64.9,18 64.7,17.6 64.5,17.1 64.3,16.8 64.3,16.5 64.2,16.2 64.2,15.9 64.2,15.6 Z"
         class="a"
         id="path8"
         inkscape:connector-curvature="0" />
      <path
         d="M 78.7,19.7 V 7.3 C 80.7,6.4 82.9,6 85.2,6 v 1.8 c -1.5,0.1 -3,0.3 -4.6,0.7 v 11.2 h -1.9"
         class="a"
         id="path10"
         inkscape:connector-curvature="0" />
      <path
         d="m 88.2,15.5 c 0,1.7 1.2,2.6 3.7,2.6 v 0 c 2.4,0 3.6,-0.9 3.6,-2.5 V 13 c -0.6,-0.1 -1.4,-0.1 -2.4,-0.1 -3.3,0 -4.9,0.9 -4.9,2.6 z m -1.9,0 c 0,-0.6 0.1,-1.1 0.3,-1.6 0.2,-0.5 0.5,-0.9 0.8,-1.2 0.4,-0.2 0.8,-0.5 1.3,-0.7 0.5,-0.2 0.9,-0.4 1.3,-0.5 0.4,-0.1 0.8,-0.2 1.4,-0.2 0.5,-0.1 0.9,-0.1 1.1,-0.1 0.2,0 0.5,0 0.8,0 l 2.2,0.1 c 0,-1.2 -0.4,-2.1 -1,-2.6 -0.7,-0.5 -1.7,-0.8 -3,-0.8 -1.4,0 -2.7,0.2 -3.9,0.7 V 6.7 C 88.9,6.2 90.3,6 91.6,6 93.5,6 95,6.5 96,7.4 c 1,1 1.4,2.4 1.4,4.2 v 4 c 0,0.9 -0.2,1.6 -0.6,2.2 -0.4,0.7 -0.9,1.1 -1.5,1.4 -0.6,0.2 -1.2,0.4 -1.8,0.5 -0.5,0.1 -1,0.2 -1.6,0.2 -0.4,0 -0.8,0 -1.3,-0.1 -0.4,0 -0.9,-0.2 -1.4,-0.3 -0.6,-0.2 -1.1,-0.5 -1.5,-0.8 -0.4,-0.3 -0.7,-0.7 -1,-1.2 -0.3,-0.6 -0.4,-1.2 -0.4,-2 z"
         class="a"
         id="path12"
         inkscape:connector-curvature="0" />
      <path
         d="m 99.8,9.9 c 0,-1.1 0.4,-2 1.1,-2.8 0.8,-0.7 2,-1.1 3.7,-1.1 1.1,0 2.3,0.2 3.4,0.8 v 1.9 c -1,-0.6 -2.1,-0.9 -3.2,-0.9 -2.1,0 -3.1,0.7 -3.1,2.1 0,0.4 0.3,0.8 0.8,1.1 0.4,0.3 1,0.5 1.8,0.7 0.7,0.2 1.4,0.4 2.1,0.7 0.7,0.3 1.3,0.7 1.8,1.3 0.5,0.7 0.8,1.5 0.8,2.4 0,1.2 -0.5,2.1 -1.4,2.8 -0.8,0.7 -2,1 -3.6,1 -1.5,0 -2.8,-0.3 -4.1,-1 v -2.1 c 1.3,0.8 2.7,1.2 4,1.2 2.1,0 3.1,-0.6 3.1,-1.9 0,-0.6 -0.2,-1.1 -0.7,-1.5 -0.5,-0.4 -1.1,-0.7 -1.8,-0.9 -0.8,-0.2 -1.5,-0.4 -2.2,-0.6 C 101.6,12.9 101,12.5 100.5,12 100,11.4 99.8,10.7 99.8,9.9"
         class="a"
         id="path14"
         inkscape:connector-curvature="0" />
      <path
         d="m 111.6,19.7 h 1.9 V 6.2 h -1.9 z M 111.5,3.8 h 2.2 V 1.7 h -2.2 z"
         class="a"
         id="path16"
         inkscape:connector-curvature="0" />
      <polygon
         points="117.4,1.1 117.4,19.7 119.4,19.7 119.4,1.1 "
         class="a"
         id="polygon18" />
      <path
         d="m 1.9,19.4 v 0 C 0.3,18.5 -0.2,16.5 0.7,15 L 8.3,1.8 C 9.2,0.2 11.2,-0.3 12.8,0.6 14.4,1.5 14.9,3.5 14,5 L 6.4,18.2 c -0.9,1.6 -2.9,2.1 -4.5,1.2"
         id="path20"
         inkscape:connector-curvature="0"
         style="fill:#f9c823" />
      <path
         d="m 20.5,19.4 v 0 C 18.9,20.3 16.9,19.8 16,18.2 L 8.3,5 C 7.4,3.5 8,1.5 9.5,0.6 11.1,-0.3 13.1,0.2 14,1.8 L 21.7,15 c 0.9,1.5 0.3,3.5 -1.2,4.4"
         id="path22"
         inkscape:connector-curvature="0"
         style="fill:#3c81b5" />
      <path
         d="m 13.9,1.6 c 0,-0.1 -0.1,-0.1 -0.1,-0.1 0,-0.1 -0.1,-0.1 -0.1,-0.2 0,0 -0.1,-0.1 -0.1,-0.1 0,0 -0.1,-0.1 -0.1,-0.1 C 13.5,1 13.4,1 13.4,1 13.3,0.9 13.3,0.9 13.3,0.9 13.2,0.8 13.2,0.8 13.1,0.8 c 0,-0.1 0,-0.1 -0.1,-0.1 0,0 -0.1,-0.1 -0.2,-0.1 0,0 0,-0.1 -0.1,-0.1 0,0 -0.1,0 -0.1,-0.1 -0.1,0 -0.1,0 -0.2,0 0,0 -0.1,-0.1 -0.1,-0.1 -0.1,0 -0.1,0 -0.2,0 0,-0.1 -0.1,-0.1 -0.1,-0.1 -0.1,0 -0.1,0 -0.2,0 -0.1,0 -0.1,0 -0.1,0 -0.1,0 -0.2,-0.1 -0.2,-0.1 -0.1,0 -0.1,0 -0.2,0 0,0 -0.1,0 -0.1,0 -0.1,0 -0.1,0 -0.2,0 0,0 -0.1,0 -0.1,0 -0.1,0 -0.1,0.1 -0.2,0.1 0,0 -0.1,0 -0.1,0 -0.1,0 -0.2,0 -0.2,0 -0.1,0 -0.1,0 -0.1,0.1 -0.1,0 -0.2,0 -0.2,0 -0.1,0 -0.1,0.1 -0.2,0.1 0,0 -0.1,0 -0.1,0 -0.1,0.1 -0.1,0.1 -0.2,0.1 0,0 -0.1,0.1 -0.1,0.1 -0.1,0 -0.1,0.1 -0.2,0.1 0,0 0,0 -0.1,0.1 0,0 -0.1,0 -0.1,0.1 C 9,0.9 9,0.9 9,1 8.9,1 8.9,1 8.9,1.1 8.8,1.1 8.8,1.2 8.7,1.2 c 0,0 0,0.1 0,0.1 -0.1,0.1 -0.1,0.1 -0.2,0.2 0,0 0,0 0,0.1 C 8.4,1.6 8.4,1.7 8.4,1.7 7.8,2.7 7.7,4 8.3,5 L 11.2,9.9 14,5 c 0.6,-1 0.6,-2.3 0,-3.3 0,0 -0.1,-0.1 -0.1,-0.1"
         id="path24"
         inkscape:connector-curvature="0"
         style="fill:#72ac42" />
    </g>
  </g>
</svg>
